<svg
	width='0'
	height='0'
	viewBox='0 0 26 26'>
<symbol id='heart' xmlns="http://www.w3.org/2000/svg" viewBox="0 0 26 24" fill="none">
  <path fill-rule="evenodd" clip-rule="evenodd" d="M7.34961 12.1059C7.28354 12.2029 7.1681 12.2619 7.04392 12.262H6.0618C5.91496 12.262 5.78271 12.18 5.7272 12.0545C5.30143 11.1414 5.07171 10.1606 5.05078 9.16669C5.05078 6.08876 6.98466 4.57449 8.90119 4.43907C10.601 4.36238 12.1722 5.27237 12.8369 6.71849C12.8671 6.77633 12.9306 6.81308 13.0002 6.81308C13.0698 6.81308 13.1332 6.77633 13.1635 6.71849C13.8306 5.27423 15.4002 4.36514 17.0992 4.43907C19.0157 4.57449 20.9496 6.08876 20.9496 9.16669C20.9287 10.1606 20.699 11.1414 20.2732 12.0545C20.2176 12.1802 20.085 12.2623 19.9379 12.262H17.196C16.7078 12.2704 16.2731 12.5491 16.094 12.9684L15.836 13.5381C15.8056 13.6045 15.7324 13.6454 15.6546 13.6395C15.5765 13.6341 15.5112 13.5825 15.4934 13.5121L14.533 9.80442C14.4224 9.33305 14.0048 8.97553 13.4873 8.90919C12.9545 8.86424 12.4537 9.14977 12.2587 9.60963L11.1025 12.1639C11.0757 12.2228 11.0149 12.2624 10.9459 12.266C10.8768 12.2695 10.8116 12.2363 10.778 12.1806L10.116 11.0859C9.91792 10.7444 9.53943 10.5245 9.12016 10.5075C8.69401 10.4906 8.29287 10.6933 8.07878 11.0339L7.34961 12.1059ZM17.2857 13.8012C17.3419 13.6772 17.4732 13.5965 17.6188 13.5964L18.8018 13.5957C18.9341 13.5958 19.0557 13.6625 19.119 13.7697C19.1823 13.8769 19.177 14.0075 19.1054 14.1101C17.6037 16.228 15.6635 18.0511 13.3962 19.4747C13.1508 19.6015 12.8517 19.6015 12.6063 19.4747C10.3377 18.0512 8.3963 16.2278 6.89362 14.1094C6.82194 14.0068 6.8167 13.8763 6.87996 13.7691C6.94323 13.6619 7.06489 13.5951 7.19714 13.5951H7.39876C7.80898 13.5914 8.18791 13.392 8.40039 13.0681L8.90626 12.3263C8.94031 12.2765 9.00031 12.2469 9.06411 12.2486C9.1279 12.2502 9.18602 12.2828 9.21701 12.3343L9.95703 13.5584C10.1729 13.9385 10.6118 14.1649 11.0757 14.1354C11.5323 14.0983 11.9269 13.826 12.0947 13.4323L13.0862 11.2463C13.1163 11.1796 13.1894 11.1383 13.2675 11.1441C13.3455 11.1499 13.4106 11.2014 13.4288 11.2716L14.3892 14.9793C14.4993 15.4506 14.9167 15.8083 15.4342 15.8745C15.4767 15.8787 15.5194 15.8809 15.5621 15.8812C16.0502 15.8728 16.4847 15.5936 16.6627 15.1741L17.2857 13.8012Z" fill="currentColor"/>
  <mask id="mask0_3761_10686" style="mask-type:alpha" maskUnits="userSpaceOnUse" x="5" y="4" width="16" height="16">
    <path fill-rule="evenodd" clip-rule="evenodd" d="M7.34961 12.1059C7.28354 12.2029 7.1681 12.2619 7.04392 12.262H6.0618C5.91496 12.262 5.78271 12.18 5.7272 12.0545C5.30143 11.1414 5.07171 10.1606 5.05078 9.16669C5.05078 6.08876 6.98466 4.57449 8.90119 4.43907C10.601 4.36238 12.1722 5.27237 12.8369 6.71849C12.8671 6.77633 12.9306 6.81308 13.0002 6.81308C13.0698 6.81308 13.1332 6.77633 13.1635 6.71849C13.8306 5.27423 15.4002 4.36514 17.0992 4.43907C19.0157 4.57449 20.9496 6.08876 20.9496 9.16669C20.9287 10.1606 20.699 11.1414 20.2732 12.0545C20.2176 12.1802 20.085 12.2623 19.9379 12.262H17.196C16.7078 12.2704 16.2731 12.5491 16.094 12.9684L15.836 13.5381C15.8056 13.6045 15.7324 13.6454 15.6546 13.6395C15.5765 13.6341 15.5112 13.5825 15.4934 13.5121L14.533 9.80442C14.4224 9.33305 14.0048 8.97553 13.4873 8.90919C12.9545 8.86424 12.4537 9.14977 12.2587 9.60963L11.1025 12.1639C11.0757 12.2228 11.0149 12.2624 10.9459 12.266C10.8768 12.2695 10.8116 12.2363 10.778 12.1806L10.116 11.0859C9.91792 10.7444 9.53943 10.5245 9.12016 10.5075C8.69401 10.4906 8.29287 10.6933 8.07878 11.0339L7.34961 12.1059ZM17.2857 13.8012C17.3419 13.6772 17.4732 13.5965 17.6188 13.5964L18.8018 13.5957C18.9341 13.5958 19.0557 13.6625 19.119 13.7697C19.1823 13.8769 19.177 14.0075 19.1054 14.1101C17.6037 16.228 15.6635 18.0511 13.3962 19.4747C13.1508 19.6015 12.8517 19.6015 12.6063 19.4747C10.3377 18.0512 8.3963 16.2278 6.89362 14.1094C6.82194 14.0068 6.8167 13.8763 6.87996 13.7691C6.94323 13.6619 7.06489 13.5951 7.19714 13.5951H7.39876C7.80898 13.5914 8.18791 13.392 8.40039 13.0681L8.90626 12.3263C8.94031 12.2765 9.00031 12.2469 9.06411 12.2486C9.1279 12.2502 9.18602 12.2828 9.21701 12.3343L9.95703 13.5584C10.1729 13.9385 10.6118 14.1649 11.0757 14.1354C11.5323 14.0983 11.9269 13.826 12.0947 13.4323L13.0862 11.2463C13.1163 11.1796 13.1894 11.1383 13.2675 11.1441C13.3455 11.1499 13.4106 11.2014 13.4288 11.2716L14.3892 14.9793C14.4993 15.4506 14.9167 15.8083 15.4342 15.8745C15.4767 15.8787 15.5194 15.8809 15.5621 15.8812C16.0502 15.8728 16.4847 15.5936 16.6627 15.1741L17.2857 13.8012Z" fill="currentColor"/>
  </mask>
  <g mask="url(#mask0_3761_10686)">
  </g>
</symbol>
<symbol id='bulb' xmlns="http://www.w3.org/2000/svg" viewBox="0 0 28 28" fill="none">
  <path fill-rule="evenodd" clip-rule="evenodd" d="M14.7782 7.38506C14.7782 7.81488 14.4298 8.16332 13.9999 8.16332C13.5701 8.16332 13.2217 7.81488 13.2217 7.38506V5.4394C13.2217 5.00957 13.5701 4.66113 13.9999 4.66113C14.4298 4.66113 14.7782 5.00957 14.7782 5.4394V7.38506ZM12.5415 21.3936H15.46H15.4615C15.5964 21.3936 15.7217 21.4635 15.7926 21.5783C15.8635 21.6931 15.8698 21.8364 15.8094 21.957L15.5487 22.4785C15.2865 23.0072 14.7466 23.341 14.1564 23.3392H13.8451C13.2554 23.3404 12.7162 23.0067 12.4543 22.4785L12.1936 21.957C12.1331 21.8364 12.1395 21.6931 12.2104 21.5783C12.2812 21.4635 12.4065 21.3936 12.5415 21.3936ZM21.1545 7.62435C20.8506 7.32053 20.3579 7.32053 20.054 7.62435L18.678 8.99954C18.4757 9.19494 18.3946 9.48431 18.4658 9.75641C18.537 10.0285 18.7495 10.241 19.0216 10.3122C19.2937 10.3835 19.5831 10.3023 19.7785 10.1L21.1545 8.72481C21.4583 8.4209 21.4583 7.92826 21.1545 7.62435ZM22.5614 14C22.9912 14 23.3396 14.3484 23.3396 14.7783C23.3396 15.2081 22.9912 15.5565 22.5614 15.5565H21.0048C20.575 15.5565 20.2266 15.2081 20.2266 14.7783C20.2266 14.3484 20.575 14 21.0048 14H22.5614ZM9.32293 8.99995L7.94696 7.62476C7.64159 7.32982 7.15618 7.33404 6.85598 7.63424C6.55578 7.93444 6.55156 8.41985 6.8465 8.72523L8.22247 10.1004C8.52784 10.3954 9.01325 10.3911 9.31345 10.0909C9.61366 9.79074 9.61787 9.30533 9.32293 8.99995ZM5.4394 14H6.99592C7.42575 14 7.77419 14.3484 7.77419 14.7783C7.77419 15.2081 7.42575 15.5565 6.99592 15.5565H5.4394C5.00957 15.5565 4.66113 15.2081 4.66113 14.7783C4.66113 14.3484 5.00957 14 5.4394 14ZM14.0002 9.33106C11.1912 9.33406 8.9146 11.6103 8.91117 14.4193C8.9049 15.9968 9.64555 17.4842 10.9082 18.4297C11.0062 18.5032 11.0639 18.6186 11.0639 18.741V19.0866C11.0636 19.389 11.1837 19.6792 11.3976 19.893C11.6114 20.1069 11.9016 20.227 12.204 20.2268H15.7965C16.4193 20.2259 16.9259 19.7249 16.9335 19.1022V19.078L16.9195 18.8002C16.9134 18.6712 16.9717 18.5476 17.0752 18.4702C18.8174 17.1509 19.5219 14.8659 18.825 12.7946C18.128 10.7233 16.1856 9.3289 14.0002 9.33106ZM15.3779 18.5403C15.3781 18.0507 15.6175 17.5921 16.0192 17.3122H16.0223C17.2889 16.4302 17.8361 14.828 17.3739 13.3554C16.9116 11.8829 15.5469 10.8809 14.0035 10.8809C12.4601 10.8809 11.0954 11.8829 10.6331 13.3554C10.1709 14.828 10.7181 16.4302 11.9847 17.3122C12.3867 17.592 12.6264 18.0506 12.6268 18.5403C12.6265 18.5745 12.64 18.6074 12.6641 18.6316C12.6882 18.6559 12.721 18.6695 12.7552 18.6695H15.2456C15.2804 18.6704 15.3141 18.6571 15.339 18.6328C15.3639 18.6085 15.3779 18.5751 15.3779 18.5403Z" fill="currentColor"/>
  <mask id="mask0_3782_303409" style="mask-type:alpha" maskUnits="userSpaceOnUse" x="4" y="4" width="20" height="20">
    <path fill-rule="evenodd" clip-rule="evenodd" d="M14.7782 7.38506C14.7782 7.81488 14.4298 8.16332 13.9999 8.16332C13.5701 8.16332 13.2217 7.81488 13.2217 7.38506V5.4394C13.2217 5.00957 13.5701 4.66113 13.9999 4.66113C14.4298 4.66113 14.7782 5.00957 14.7782 5.4394V7.38506ZM12.5415 21.3936H15.46H15.4615C15.5964 21.3936 15.7217 21.4635 15.7926 21.5783C15.8635 21.6931 15.8698 21.8364 15.8094 21.957L15.5487 22.4785C15.2865 23.0072 14.7466 23.341 14.1564 23.3392H13.8451C13.2554 23.3404 12.7162 23.0067 12.4543 22.4785L12.1936 21.957C12.1331 21.8364 12.1395 21.6931 12.2104 21.5783C12.2812 21.4635 12.4065 21.3936 12.5415 21.3936ZM21.1545 7.62435C20.8506 7.32053 20.3579 7.32053 20.054 7.62435L18.678 8.99954C18.4757 9.19494 18.3946 9.48431 18.4658 9.75641C18.537 10.0285 18.7495 10.241 19.0216 10.3122C19.2937 10.3835 19.5831 10.3023 19.7785 10.1L21.1545 8.72481C21.4583 8.4209 21.4583 7.92826 21.1545 7.62435ZM22.5614 14C22.9912 14 23.3396 14.3484 23.3396 14.7783C23.3396 15.2081 22.9912 15.5565 22.5614 15.5565H21.0048C20.575 15.5565 20.2266 15.2081 20.2266 14.7783C20.2266 14.3484 20.575 14 21.0048 14H22.5614ZM9.32293 8.99995L7.94696 7.62476C7.64159 7.32982 7.15618 7.33404 6.85598 7.63424C6.55578 7.93444 6.55156 8.41985 6.8465 8.72523L8.22247 10.1004C8.52784 10.3954 9.01325 10.3911 9.31345 10.0909C9.61366 9.79074 9.61787 9.30533 9.32293 8.99995ZM5.4394 14H6.99592C7.42575 14 7.77419 14.3484 7.77419 14.7783C7.77419 15.2081 7.42575 15.5565 6.99592 15.5565H5.4394C5.00957 15.5565 4.66113 15.2081 4.66113 14.7783C4.66113 14.3484 5.00957 14 5.4394 14ZM14.0002 9.33106C11.1912 9.33406 8.9146 11.6103 8.91117 14.4193C8.9049 15.9968 9.64555 17.4842 10.9082 18.4297C11.0062 18.5032 11.0639 18.6186 11.0639 18.741V19.0866C11.0636 19.389 11.1837 19.6792 11.3976 19.893C11.6114 20.1069 11.9016 20.227 12.204 20.2268H15.7965C16.4193 20.2259 16.9259 19.7249 16.9335 19.1022V19.078L16.9195 18.8002C16.9134 18.6712 16.9717 18.5476 17.0752 18.4702C18.8174 17.1509 19.5219 14.8659 18.825 12.7946C18.128 10.7233 16.1856 9.3289 14.0002 9.33106ZM15.3779 18.5403C15.3781 18.0507 15.6175 17.5921 16.0192 17.3122H16.0223C17.2889 16.4302 17.8361 14.828 17.3739 13.3554C16.9116 11.8829 15.5469 10.8809 14.0035 10.8809C12.4601 10.8809 11.0954 11.8829 10.6331 13.3554C10.1709 14.828 10.7181 16.4302 11.9847 17.3122C12.3867 17.592 12.6264 18.0506 12.6268 18.5403C12.6265 18.5745 12.64 18.6074 12.6641 18.6316C12.6882 18.6559 12.721 18.6695 12.7552 18.6695H15.2456C15.2804 18.6704 15.3141 18.6571 15.339 18.6328C15.3639 18.6085 15.3779 18.5751 15.3779 18.5403Z" fill="currentColor"/>
  </mask>
  <g mask="url(#mask0_3782_303409)">
  </g>
</symbol>
<symbol id='compass' xmlns="http://www.w3.org/2000/svg" viewBox="0 0 30 30" fill="none">
  <path fill-rule="evenodd" clip-rule="evenodd" d="M14.4891 22.9752C14.3978 23.1494 14.1995 23.2389 14.0085 23.192C13.8175 23.1451 13.6831 22.974 13.6829 22.7773V16.745C13.6829 16.5088 13.4914 16.3174 13.2553 16.3174H7.21804C7.02138 16.3171 6.85026 16.1827 6.80338 15.9917C6.7565 15.8008 6.84595 15.6024 7.02013 15.5111L21.3754 8.04823C21.5409 7.96217 21.7431 7.99334 21.875 8.12524C22.0069 8.25715 22.0381 8.45934 21.952 8.62484L14.4891 22.9752Z" stroke="currentColor" stroke-width="1.5"/>
</symbol>
</svg>
