<svg
	width='0'
	height='0'
	viewBox='0 0 26 26'>
<symbol id='heart' xmlns="http://www.w3.org/2000/svg" viewBox="0 0 26 24" fill="none">
  <path fill-rule="evenodd" clip-rule="evenodd" d="M7.34961 12.1059C7.28354 12.2029 7.1681 12.2619 7.04392 12.262H6.0618C5.91496 12.262 5.78271 12.18 5.7272 12.0545C5.30143 11.1414 5.07171 10.1606 5.05078 9.16669C5.05078 6.08876 6.98466 4.57449 8.90119 4.43907C10.601 4.36238 12.1722 5.27237 12.8369 6.71849C12.8671 6.77633 12.9306 6.81308 13.0002 6.81308C13.0698 6.81308 13.1332 6.77633 13.1635 6.71849C13.8306 5.27423 15.4002 4.36514 17.0992 4.43907C19.0157 4.57449 20.9496 6.08876 20.9496 9.16669C20.9287 10.1606 20.699 11.1414 20.2732 12.0545C20.2176 12.1802 20.085 12.2623 19.9379 12.262H17.196C16.7078 12.2704 16.2731 12.5491 16.094 12.9684L15.836 13.5381C15.8056 13.6045 15.7324 13.6454 15.6546 13.6395C15.5765 13.6341 15.5112 13.5825 15.4934 13.5121L14.533 9.80442C14.4224 9.33305 14.0048 8.97553 13.4873 8.90919C12.9545 8.86424 12.4537 9.14977 12.2587 9.60963L11.1025 12.1639C11.0757 12.2228 11.0149 12.2624 10.9459 12.266C10.8768 12.2695 10.8116 12.2363 10.778 12.1806L10.116 11.0859C9.91792 10.7444 9.53943 10.5245 9.12016 10.5075C8.69401 10.4906 8.29287 10.6933 8.07878 11.0339L7.34961 12.1059ZM17.2857 13.8012C17.3419 13.6772 17.4732 13.5965 17.6188 13.5964L18.8018 13.5957C18.9341 13.5958 19.0557 13.6625 19.119 13.7697C19.1823 13.8769 19.177 14.0075 19.1054 14.1101C17.6037 16.228 15.6635 18.0511 13.3962 19.4747C13.1508 19.6015 12.8517 19.6015 12.6063 19.4747C10.3377 18.0512 8.3963 16.2278 6.89362 14.1094C6.82194 14.0068 6.8167 13.8763 6.87996 13.7691C6.94323 13.6619 7.06489 13.5951 7.19714 13.5951H7.39876C7.80898 13.5914 8.18791 13.392 8.40039 13.0681L8.90626 12.3263C8.94031 12.2765 9.00031 12.2469 9.06411 12.2486C9.1279 12.2502 9.18602 12.2828 9.21701 12.3343L9.95703 13.5584C10.1729 13.9385 10.6118 14.1649 11.0757 14.1354C11.5323 14.0983 11.9269 13.826 12.0947 13.4323L13.0862 11.2463C13.1163 11.1796 13.1894 11.1383 13.2675 11.1441C13.3455 11.1499 13.4106 11.2014 13.4288 11.2716L14.3892 14.9793C14.4993 15.4506 14.9167 15.8083 15.4342 15.8745C15.4767 15.8787 15.5194 15.8809 15.5621 15.8812C16.0502 15.8728 16.4847 15.5936 16.6627 15.1741L17.2857 13.8012Z" fill="currentColor"/>
  <mask id="mask0_3761_10686" style="mask-type:alpha" maskUnits="userSpaceOnUse" x="5" y="4" width="16" height="16">
    <path fill-rule="evenodd" clip-rule="evenodd" d="M7.34961 12.1059C7.28354 12.2029 7.1681 12.2619 7.04392 12.262H6.0618C5.91496 12.262 5.78271 12.18 5.7272 12.0545C5.30143 11.1414 5.07171 10.1606 5.05078 9.16669C5.05078 6.08876 6.98466 4.57449 8.90119 4.43907C10.601 4.36238 12.1722 5.27237 12.8369 6.71849C12.8671 6.77633 12.9306 6.81308 13.0002 6.81308C13.0698 6.81308 13.1332 6.77633 13.1635 6.71849C13.8306 5.27423 15.4002 4.36514 17.0992 4.43907C19.0157 4.57449 20.9496 6.08876 20.9496 9.16669C20.9287 10.1606 20.699 11.1414 20.2732 12.0545C20.2176 12.1802 20.085 12.2623 19.9379 12.262H17.196C16.7078 12.2704 16.2731 12.5491 16.094 12.9684L15.836 13.5381C15.8056 13.6045 15.7324 13.6454 15.6546 13.6395C15.5765 13.6341 15.5112 13.5825 15.4934 13.5121L14.533 9.80442C14.4224 9.33305 14.0048 8.97553 13.4873 8.90919C12.9545 8.86424 12.4537 9.14977 12.2587 9.60963L11.1025 12.1639C11.0757 12.2228 11.0149 12.2624 10.9459 12.266C10.8768 12.2695 10.8116 12.2363 10.778 12.1806L10.116 11.0859C9.91792 10.7444 9.53943 10.5245 9.12016 10.5075C8.69401 10.4906 8.29287 10.6933 8.07878 11.0339L7.34961 12.1059ZM17.2857 13.8012C17.3419 13.6772 17.4732 13.5965 17.6188 13.5964L18.8018 13.5957C18.9341 13.5958 19.0557 13.6625 19.119 13.7697C19.1823 13.8769 19.177 14.0075 19.1054 14.1101C17.6037 16.228 15.6635 18.0511 13.3962 19.4747C13.1508 19.6015 12.8517 19.6015 12.6063 19.4747C10.3377 18.0512 8.3963 16.2278 6.89362 14.1094C6.82194 14.0068 6.8167 13.8763 6.87996 13.7691C6.94323 13.6619 7.06489 13.5951 7.19714 13.5951H7.39876C7.80898 13.5914 8.18791 13.392 8.40039 13.0681L8.90626 12.3263C8.94031 12.2765 9.00031 12.2469 9.06411 12.2486C9.1279 12.2502 9.18602 12.2828 9.21701 12.3343L9.95703 13.5584C10.1729 13.9385 10.6118 14.1649 11.0757 14.1354C11.5323 14.0983 11.9269 13.826 12.0947 13.4323L13.0862 11.2463C13.1163 11.1796 13.1894 11.1383 13.2675 11.1441C13.3455 11.1499 13.4106 11.2014 13.4288 11.2716L14.3892 14.9793C14.4993 15.4506 14.9167 15.8083 15.4342 15.8745C15.4767 15.8787 15.5194 15.8809 15.5621 15.8812C16.0502 15.8728 16.4847 15.5936 16.6627 15.1741L17.2857 13.8012Z" fill="currentColor"/>
  </mask>
  <g mask="url(#mask0_3761_10686)">
  </g>
</symbol>
</svg>
